<?xml version="1.0" encoding="UTF-8" standalone="no"?>
<!-- Created with Inkscape (http://www.inkscape.org/) -->

<svg
   xmlns:dc="http://purl.org/dc/elements/1.1/"
   xmlns:cc="http://creativecommons.org/ns#"
   xmlns:rdf="http://www.w3.org/1999/02/22-rdf-syntax-ns#"
   xmlns:svg="http://www.w3.org/2000/svg"
   xmlns="http://www.w3.org/2000/svg"
   version="1.1"
   width="407.41"
   height="407.40701"
   viewBox="0 0 407.41 407.407"
   id="Layer_1"
   xml:space="preserve"><metadata
     id="metadata3729"><rdf:RDF><cc:Work
         rdf:about=""><dc:format>image/svg+xml</dc:format><dc:type
           rdf:resource="http://purl.org/dc/dcmitype/StillImage" /><dc:title></dc:title></cc:Work></rdf:RDF></metadata><defs
     id="defs3727" /><path
     d="m 140.859,43.518004 c 8.424,17.64 2.736,140.831996 -7.128,184.031996 -9.864,43.27201 -19.728,98.28001 -22.032,144.57601 -1.008,19.728 2.016,27.504 14.904,27.504 22.752,0 51.624,-47.952 87.84,-46.872 36.288,1.08 47.808,55.008 64.8,54.648 16.992,-0.36 30.672,-6.264 30.816,-58.752 C 310.563,191.981 179.235,64.973004 140.859,43.518004 l 0,0 0,0 0,0 z"
     id="path3688"
     style="fill-rule:evenodd" /><path
     d="m 254.763,168.726 c 7.992,13.464 28.368,3.096 29.232,-12.096 0.864,-15.192 -1.368,-34.344 -11.232,-35.064 -9.864,-0.72 -16.92,-10.584 -26.784,-11.304 -9.864,-0.72 -20.448,9.144 -25.056,-3.96 -4.608,-13.104003 12.384,-18.648003 25.056,-20.736003 -11.304,-11.304 -17.928,-23.832 -22.896,-36.864 -4.968,-13.032 -8.64,-24.984 5.256,-30.096 13.896,-5.112 12.744,21.168 28.656,33.192 -4.68,-17.712 -6.408,-25.056 -6.048,-35.352 0.36,-10.2959997 -0.36,-18.1439997 14.256,-16.12799975 14.616,2.01600005 8.28,32.39999975 19.656,44.78399975 3.456,-11.736 5.544,-26.64 13.896,-32.76 8.352,-6.1199997 27.36,-6.2639997 15.264,18.864 -12.096,25.128 3.528,38.736 -0.144,58.536 C 310.203,109.542 298.827,105.942 293.931,118.686 c -4.896,12.744 2.88,41.76 -6.336,54.792 -9.216,13.032 -10.872,33.048 -4.896,49.032 -18.36,-17.136 -27.936,-53.784 -27.936,-53.784 l 0,0 0,0 0,0 z"
     id="path3690"
     style="fill-rule:evenodd" /><path
     d="m 140.355,185.64599 c -7.416,50.83201 -33.192,56.88001 -34.488,77.97601 -1.296,21.096 6.84,23.112 6.336,42.624 -0.504,19.512 -17.856,27.432 -19.943998,38.016 -2.088,10.584 8.927998,13.968 15.335998,13.968 6.408,0 12.816,-28.08 15.408,-45.936 2.592,-17.856 -8.496,-28.368 -8.496,-40.608 0,-12.24 16.056,-34.632 13.104,-14.976 13.32,-21.024 19.657,-47.809 12.744,-71.06401 l 0,0 0,0 0,0 z"
     id="path3692"
     style="fill-rule:evenodd" /><path
     d="m 150.292,205.013 c -5.616,27.504 -40.68,181.08 -22.824,183.024 17.856,1.944 43.272,-47.52 84.888,-47.16 41.688,0.36 58.104,55.44 68.256,55.08 10.152,-0.36 16.848,3.6 17.928,-58.464 1.08,-62.064 -36.792,-141.336 -59.184,-176.256 -30.385,1.944 -63.073,26.281 -89.064,43.776 l 0,0 0,0 0,0 z"
     id="path3694"
     style="fill:#ffffff;fill-rule:evenodd" /><g
     transform="translate(92.000003,-1.1378984e-7)"
     id="g3696"><path
       d="m 139.162,172.181 c -1.95,-18.251 -19.12,-25.421 -35.661,-23.168 -13.889,1.893 -32.403,13.613 -34.107,28.64 -1.921,16.937 11.402,32.522 28.361,33.203 15.03,0.604 31.176,-6.668 37.93,-20.79 2.73,-5.704 3.797,-11.578 3.477,-17.885"
       id="path3698"
       style="fill:none" /><path
       d="m 147.082,171.533 c -1.662,-17.195 -14.407,-27.988 -30.895,-30.627 -15.924,-2.549 -33.26,4.998 -44.408,16.146 -12.538,12.538 -13.039,29.978 -4.26,44.833 8.661,14.657 27.847,19.501 43.563,15.835 21.506,-5.015 37.398,-23.824 36,-46.187"
       id="path3700" /><radialGradient
       cx="86.629898"
       cy="167.06931"
       r="54.7155"
       id="SVGID_1_"
       gradientUnits="userSpaceOnUse"><stop
         id="stop3703"
         style="stop-color:#ffffff;stop-opacity:1"
         offset="0" /><stop
         id="stop3705"
         style="stop-color:#fbc8b4;stop-opacity:1"
         offset="0.0604" /><stop
         id="stop3707"
         style="stop-color:#fbc3b0;stop-opacity:1"
         offset="0.0712" /><stop
         id="stop3709"
         style="stop-color:#f7978b;stop-opacity:1"
         offset="0.1829" /><stop
         id="stop3711"
         style="stop-color:#f4716b;stop-opacity:1"
         offset="0.29949999" /><stop
         id="stop3713"
         style="stop-color:#f15251;stop-opacity:1"
         offset="0.4199" /><stop
         id="stop3715"
         style="stop-color:#ef3a3d;stop-opacity:1"
         offset="0.54530001" /><stop
         id="stop3717"
         style="stop-color:#ee292f;stop-opacity:1"
         offset="0.6778" /><stop
         id="stop3719"
         style="stop-color:#ed1f27;stop-opacity:1"
         offset="0.82200003" /><stop
         id="stop3721"
         style="stop-color:#ed1c24;stop-opacity:1"
         offset="1" /></radialGradient><path
       d="m 139.162,177.941 c -1.493,15.627 -13.947,28.182 -28.944,31.824 -15.87,3.854 -33.393,-2.257 -39.096,-18.576 -2.912,-8.332 -2.37,-16.879 2.637,-24.198 4.223,-6.171 11.033,-11 17.779,-14.066 13.924,-6.326 33.832,-7.029 43.531,7.077 3.675,5.346 4.318,11.639 4.093,17.939"
       id="path3723"
       style="fill:url(#SVGID_1_);stroke:#000000" /></g></svg>