<?xml version="1.0" encoding="UTF-8" standalone="no"?>
<!-- Created with Inkscape (http://www.inkscape.org/) -->

<svg
   xmlns:dc="http://purl.org/dc/elements/1.1/"
   xmlns:cc="http://creativecommons.org/ns#"
   xmlns:rdf="http://www.w3.org/1999/02/22-rdf-syntax-ns#"
   xmlns:svg="http://www.w3.org/2000/svg"
   xmlns="http://www.w3.org/2000/svg"
   version="1.1"
   width="412"
   height="412"
   viewBox="0 0 412 412"
   id="svg2">
  <metadata
     id="metadata8">
    <rdf:RDF>
      <cc:Work
         rdf:about="">
        <dc:format>image/svg+xml</dc:format>
        <dc:type
           rdf:resource="http://purl.org/dc/dcmitype/StillImage" />
        <dc:title></dc:title>
        <dc:date>12/23/2013</dc:date>
        <dc:creator>
          <cc:Agent>
            <dc:title>edited by Paul Sherman</dc:title>
          </cc:Agent>
        </dc:creator>
        <dc:rights>
          <cc:Agent>
            <dc:title>PD</dc:title>
          </cc:Agent>
        </dc:rights>
        <dc:publisher>
          <cc:Agent>
            <dc:title>WPClipart</dc:title>
          </cc:Agent>
        </dc:publisher>
        <dc:subject>
          <rdf:Bag>
            <rdf:li>hazard</rdf:li>
            <rdf:li>sign</rdf:li>
          </rdf:Bag>
        </dc:subject>
        <cc:license
           rdf:resource="http://creativecommons.org/publicdomain/zero/1.0/" />
        <dc:description>converted from EPS</dc:description>
        <dc:source>http://www.aem.org/SRT/Safety/PictorialDatabase/Report.asp</dc:source>
      </cc:Work>
      <cc:License
         rdf:about="http://creativecommons.org/publicdomain/zero/1.0/">
        <cc:permits
           rdf:resource="http://creativecommons.org/ns#Reproduction" />
        <cc:permits
           rdf:resource="http://creativecommons.org/ns#Distribution" />
        <cc:permits
           rdf:resource="http://creativecommons.org/ns#DerivativeWorks" />
      </cc:License>
    </rdf:RDF>
  </metadata>
  <defs
     id="defs6" />
  <path
     d="M 88.5,396.50201 C 83,387.91241 78.05,380.1208 77.5,379.1873 76.95,378.25381 73.105374,372.31728 68.956388,365.99502 62.972717,356.87705 39.858689,320.94455 32,308.54352 31.175,307.24167 25.641276,298.65068 19.702835,289.45243 13.764394,280.25418 9.039394,272.18214 9.2028348,271.51456 9.3662757,270.84698 21.425,278.78906 36,289.16363 c 14.575,10.37457 28.3,20.0856 30.5,21.58007 2.2,1.49447 6.290891,4.41351 9.090869,6.48676 7.899862,5.84946 8.592122,5.15735 4.731481,-4.73046 -0.858978,-2.2 -1.897699,-4.9 -2.308268,-6 -0.41057,-1.1 -1.217388,-3.125 -1.792929,-4.5 -0.575542,-1.375 -3.813896,-9.925 -7.196344,-19 -3.382447,-9.075 -7.206841,-19.2 -8.498652,-22.5 C 59.234345,257.2 56.079406,248.875 53.51518,242 50.950955,235.125 48.242861,227.925 47.497194,226 34.146274,191.53351 27.711732,173.95493 28.249527,173.41714 28.644338,173.02233 38.833332,183.37619 50,195.51955 c 4.963032,5.39712 21.451217,23.03386 45.133644,48.27761 4.748504,5.06156 8.911006,9.20284 9.249996,9.20284 0.92354,0 0.74327,-5.966 -0.3651,-12.08322 C 103.1638,236.19942 99.96637,216.47099 96.981877,197.5 96.057893,191.62668 93.348793,174.43774 90.519984,156.5 89.739361,151.55 87.9385,140.075 86.518072,131 85.097643,121.925 83.503068,111.8 82.974571,108.5 82.446074,105.2 80.862077,95.075 79.454577,86 78.047077,76.925 75.785009,62.525 74.427759,54 73.070509,45.475 71.534728,35.8 71.014912,32.5 70.495096,29.2 69.544085,23.305011 68.901554,19.400025 67.327685,9.8348212 68.056441,8.5905153 71.43143,15.080422 72.981538,18.06119 75.481052,22.75 76.985906,25.5 c 1.504854,2.75 4.88405,9.05 7.509325,14 2.625274,4.95 6.019907,11.25 7.543627,14 1.523721,2.75 5.22376,9.725 8.222312,15.5 2.99854,5.775 6.34334,12.075 7.43287,14 1.08954,1.925 4.81344,8.9 8.27535,15.5 3.4619,6.6 6.6237,12.45 7.0262,13 0.40251,0.55 3.33805,5.95 6.52343,12 6.40324,12.16172 10.81171,20.45794 16.47285,31 6.91222,12.87177 12.28933,22.93565 16.2961,30.5 11.96149,22.58205 18.98305,35 19.79026,35 0.39621,0 0.99338,-5.7375 1.32704,-12.75 0.33366,-7.0125 1.05397,-19.11672 1.60069,-26.89826 C 185.55268,172.5702 186,160.33426 186,153.16076 c 0,-7.1735 0.40061,-13.29032 0.89024,-13.59293 1.08701,-0.6718 3.1081,3.52027 6.47595,13.43217 3.67862,10.82654 6.64867,19.20179 7.62436,21.5 0.467,1.1 1.96718,5.15 3.33374,9 1.36656,3.85 3.65264,10.15955 5.08018,14.02121 1.42754,3.86167 2.60554,7.46167 2.61777,8 0.0122,0.53834 0.85814,2.06616 1.8798,3.39517 2.19284,2.85252 2.21313,2.81087 4.10006,-8.41638 0.64706,-3.85 1.58631,-8.8 2.08723,-11 0.50093,-2.2 2.54883,-12.775 4.55091,-23.5 2.00207,-10.725 3.9854,-21.3 4.4074,-23.5 1.45179,-7.56862 2.95435,-15.51072 3.92566,-20.75 0.53531,-2.8875 1.66962,-8.85 2.52068,-13.25 0.85106,-4.4 1.98763,-10.475 2.5257,-13.5 1.14851,-6.456843 1.56877,-8.680451 6.99289,-37 5.99638,-31.307334 8.73102,-45.043923 9.75477,-49 0.65306,-2.5235768 1.0872,3.195474 1.55618,20.5 0.35775,13.2 1.11431,41.1 1.68126,62 0.56694,20.9 1.49961,60.275 2.0726,87.5 0.68229,32.4184 1.40945,49.84508 2.10721,50.5 0.71069,0.66706 1.19173,0.66266 1.44481,-0.0132 0.20867,-0.55726 7.03051,-11.13226 15.15963,-23.5 8.12912,-12.36773 15.8342,-24.20723 17.12239,-26.30999 1.32189,-2.15775 2.71985,-3.44553 3.20916,-2.95622 0.48931,0.48931 0.42937,5.20408 -0.1376,10.8232 C 298.43046,193.0197 297.53812,202.225 297,208 c -1.80693,19.39172 -2.98416,30.39866 -3.60549,33.71061 -0.46261,2.46596 -0.26123,3.28939 0.80446,3.28939 0.78185,0 8.89991,-8.6625 18.04014,-19.25 9.14022,-10.5875 18.4012,-21.275 20.57995,-23.75 5.07396,-5.76387 30.14292,-34.81443 36.68094,-42.50682 2.75,-3.23554 7.025,-8.18868 9.5,-11.00697 2.475,-2.8183 6.075,-6.91893 8,-9.11252 1.925,-2.19359 6.2,-7.20478 9.5,-11.13598 3.7798,-4.50276 6.12269,-6.59341 6.33156,-5.64988 0.18236,0.82375 -2.20951,8.34098 -5.31527,16.70495 -13.36348,35.9885 -15.72611,42.31476 -16.50985,44.20722 -0.45555,1.1 -2.40241,6.275 -4.32635,11.5 -1.92395,5.225 -6.27421,16.925 -9.66726,26 -6.38808,17.08546 -12.38286,33.2909 -14.24209,38.5 -0.58891,1.65 -1.63469,4.35 -2.32395,6 -0.68926,1.65 -2.45783,6.375 -3.93017,10.5 -1.47234,4.125 -3.06992,8.4 -3.55017,9.5 -0.48026,1.1 -5.18881,13.7 -10.46345,28 -5.27463,14.3 -10.03747,27.07065 -10.58406,28.37923 -0.5466,1.30857 -0.74703,2.62602 -0.44539,2.92765 0.30164,0.30164 4.25599,-0.96192 8.78744,-2.80791 8.22328,-3.34994 10.96449,-4.52837 26.45021,-11.37081 4.51616,-1.99549 8.44136,-3.62816 8.72267,-3.62816 0.2813,0 3.11126,-1.17905 6.28879,-2.62011 10.98049,-4.97982 12.37179,-5.51507 13.42396,-5.16435 1.18472,0.39491 -2.54639,5.08645 -14.505,18.23878 -4.47789,4.92487 -10.61662,11.68981 -13.64162,15.03321 -3.025,3.34339 -8.0875,8.93372 -11.25,12.42295 -3.1625,3.48923 -5.75,6.91986 -5.75,7.62363 0,0.70377 6.92729,6.834 15.39399,13.62273 14.4696,11.60197 17.31852,14.73577 12.24692,13.47154 -1.1775,-0.29353 -6.41591,-1.01835 -11.64091,-1.61072 -5.225,-0.59236 -12.65,-1.53378 -16.5,-2.09202 -11.89663,-1.725 -19.6143,-2.76158 -29.75,-3.99578 -5.3625,-0.65298 -9.75,-1.64834 -9.75,-2.21192 0,-0.84656 11.63825,-14.1968 18.25,-20.93458 2.27231,-2.31562 2.27231,-4.20084 0,-3.31551 -0.9625,0.375 -7.375,2.4916 -14.25,4.70355 -6.875,2.21195 -14.19661,4.65328 -16.27024,5.42516 -2.07363,0.77189 -4.43613,1.40344 -5.25,1.40344 -1.66645,0 -1.92585,-2.76446 -0.58204,-6.20295 0.49374,-1.26338 2.56124,-7.69705 4.59444,-14.29705 2.0332,-6.6 5.18401,-16.725 7.0018,-22.5 1.81778,-5.775 5.42572,-17.25 8.01764,-25.5 2.59191,-8.25 4.85744,-15.24649 5.0345,-15.54775 0.17706,-0.30126 -0.0147,-1.09246 -0.42618,-1.75822 -0.51162,-0.82781 -3.57305,1.19575 -9.68402,6.40101 -4.91475,4.18632 -10.06998,8.57752 -11.45608,9.75822 -1.3861,1.18071 -6.5611,5.52081 -11.5,9.64467 -4.9389,4.12387 -9.20482,7.74293 -9.47982,8.04235 -2.10191,2.28862 -18.15495,15.1381 -18.49163,14.80143 -0.7874,-0.7874 -3.28285,-32.66746 -5.21255,-66.59171 -0.32068,-5.6375 -0.85857,-10.25 -1.19532,-10.25 -0.94919,0 -2.58266,4.3628 -7.11373,19 -7.24508,23.40453 -10.44759,32.34389 -11.73677,32.76163 -0.73136,0.23698 -1.25,-0.46499 -1.25,-1.69187 0,-1.15329 -0.42204,-2.87829 -0.93787,-3.83333 -0.51583,-0.95504 -2.12691,-5.11143 -3.58018,-9.23643 -1.45327,-4.125 -3.02795,-8.4 -3.49928,-9.5 -0.47133,-1.1 -1.14058,-3.0125 -1.48721,-4.25 -0.94233,-3.36419 -3.32935,-2.75123 -3.89425,1 -0.26917,1.7875 -1.22283,8.425 -2.11923,14.75 -0.8964,6.325 -2.04656,13.65965 -2.5559,16.29922 -0.50934,2.63957 -0.92608,6.35207 -0.92608,8.25 0,4.54836 -1.40177,4.3587 -4.54117,-0.61443 -2.64737,-4.19371 -3.80133,-6.20334 -9.4371,-16.43479 -1.81774,-3.3 -4.14125,-7.19447 -5.16335,-8.65437 C 179.83627,299.38573 179,297.97178 179,297.70353 179,296.99557 157.41631,258.87136 155.67299,256.5 c -0.80868,-1.1 -1.67985,-1.775 -1.93595,-1.5 -0.25609,0.275 -0.10549,7.025 0.33468,15 0.44017,7.975 0.87175,24.625 0.95905,37 0.0873,12.375 0.4536,28.05611 0.81399,34.84691 0.36038,6.7908 0.31087,12.5591 -0.11003,12.81845 -0.7338,0.45216 -3.90366,-2.36004 -22.73473,-20.16955 -14.70739,-13.90953 -21.22517,-19.47468 -22.14355,-18.90709 -0.48899,0.30221 -0.70251,0.85588 -0.47449,1.23038 0.22802,0.37449 2.09579,8.7809 4.15059,18.6809 2.05481,9.9 4.30473,20.7 4.99984,24 3.60337,17.10697 5.84838,27.64534 7.13657,33.5 0.7866,3.575 1.68284,8.56166 1.99164,11.08147 l 0.56147,4.58146 -9.86103,1.25969 C 113.93747,410.61546 107.025,411.39317 104,411.65089 l -5.5,0.46856 -10,-15.61744 z"
     id="path4064"
     style="fill:#000000" />
</svg>
